<?xml version="1.0" encoding="iso-8859-1"?>
<!-- Generator: Adobe Illustrator 18.0.0, SVG Export Plug-In . SVG Version: 6.00 Build 0)  -->
<!DOCTYPE svg PUBLIC "-//W3C//DTD SVG 1.1//EN" "http://www.w3.org/Graphics/SVG/1.1/DTD/svg11.dtd">
<svg version="1.1" id="Capa_1" xmlns="http://www.w3.org/2000/svg" xmlns:xlink="http://www.w3.org/1999/xlink" x="0px" y="0px"
	 viewBox="0 0 159.705 159.705" style="enable-background:new 0 0 159.705 159.705;" xml:space="preserve">
<g>
	<circle style="fill:#A3DCE2;" cx="79.852" cy="79.852" r="79.852"/>
	<g>
		<g>
			<polygon style="fill:#F8B000;" points="80.389,33.315 84.195,37.671 88.715,34.065 91.68,39.031 96.773,36.289 98.806,41.704 
				104.306,39.916 104.812,45.607 110.019,44.83 110.019,50.614 116.32,50.872 115.55,56.563 121.321,57.849 119.353,63.264 
				124.704,65.536 121.754,70.502 126.589,73.687 122.787,78.042 126.972,82.038 122.45,85.645 125.851,90.323 120.756,93.063 
				123.267,98.274 117.766,100.061 119.306,105.635 113.575,106.411 114.093,112.171 108.316,111.911 107.798,117.671 
				102.158,116.384 100.621,121.96 95.303,119.685 92.794,124.897 87.968,121.709 84.569,126.39 80.388,122.391 76.209,126.39 
				72.81,121.709 67.983,124.897 65.474,119.685 60.157,121.96 58.617,116.384 52.98,117.671 52.462,111.911 46.684,112.171 
				47.203,106.411 41.472,105.635 43.011,100.061 37.511,98.274 40.021,93.063 34.927,90.323 38.327,85.645 33.805,82.038 
				37.987,78.042 34.18,73.687 39.008,70.502 36.04,65.536 41.36,63.264 39.326,57.849 44.964,56.564 43.585,50.872 49.019,50.614 
				49.019,44.83 55.095,45.607 56.3,39.916 61.886,41.704 63.961,36.289 69.075,39.031 72.052,34.065 76.578,37.671 			"/>
			<circle style="fill:#F6D100;" cx="80.389" cy="79.946" r="34.472"/>
		</g>
		<polyline style="fill:#EAA200;" points="80.389,33.315 84.195,37.671 88.715,34.065 91.68,39.031 96.773,36.289 98.806,41.704 
			104.306,39.916 104.812,45.607 110.019,44.83 110.019,50.614 116.32,50.872 115.55,56.563 121.321,57.849 119.353,63.264 
			124.704,65.536 121.754,70.502 126.589,73.687 122.787,78.042 126.972,82.038 122.45,85.645 125.851,90.323 120.756,93.063 
			123.267,98.274 117.766,100.061 119.306,105.635 113.575,106.411 114.093,112.171 108.316,111.911 107.798,117.671 
			102.158,116.384 100.621,121.96 95.303,119.685 92.794,124.897 87.968,121.709 84.569,126.39 80.388,122.391 		"/>
		<path style="fill:#EAC300;" d="M80.389,45.475c19.037,0,34.472,15.434,34.472,34.471c0,19.038-15.435,34.472-34.472,34.472"/>
	</g>
</g>
<g>
</g>
<g>
</g>
<g>
</g>
<g>
</g>
<g>
</g>
<g>
</g>
<g>
</g>
<g>
</g>
<g>
</g>
<g>
</g>
<g>
</g>
<g>
</g>
<g>
</g>
<g>
</g>
<g>
</g>
</svg>
