<svg xmlns="http://www.w3.org/2000/svg" viewBox="0 0 210 150">

						<g transform="matrix(2.3 0 0 2.3 10.9 -179.4)">

							<path d="m5.1 77.1 12.7 24.9h18.2l-11.9-23.8z" fill="#e6e6e6"></path>

							<g fill="#ccc">

								<path d="m29.7 78.9 11.3 23.8h32l4.16-7.18-23.4-0.567-6.99-15.4z"></path>

								<path d="m64.9 80.8-6.35 8.03 21.9 0.227 3.99-7.46z"></path>

								<path d="m22.3 110h17.3l13.1 24.1-18.2 0.282z"></path>

								<path d="m69.2 110-12.1 23.2-12.3-23.1z"></path>

							</g>

							<g fill="#4d4d4d">

								<path d="m36 102 1.8 5.48-19.9 0.283l-11.8-22-1-7.9 12.7 24.9"></path>

								<path d="m29.7 78.9 1.04 5.1 11.8 24.1 32.3-0.378 3.69-6.99-1.32-5.2-4.16 7.18h-32z"></path>

								<path d="m84.5 81.6 1.33 5.91-4.06 7.65-22.1-0.277-1.04-6.05 21.9 0.227z"></path>

								<path d="m22.3 110 0.85 7.28 11.5 21.9 18.8-0.309-0.809-4.86-18.2 0.415z"></path>

								<path d="m69.2 110 1.7 5.48-13.1 23.5-11.7-23-1.23-5.95 12.3 23.1z"></path>

							</g>

						</g>

					</svg>